<svg width="314" height="278" viewBox="0 0 314 278" fill="none" xmlns="http://www.w3.org/2000/svg">
<path d="M186.341 173.936L187.317 241.615L128.778 276.295L69.263 243.294L68.2869 175.615L126.826 140.934L186.341 173.936Z" fill="white" stroke="white"/>
<path d="M238.873 74.7752L242.585 142.36L185.495 179.348L124.694 148.745L120.982 81.1605L178.07 44.1722L238.873 74.7752Z" fill="white" stroke="white"/>
<path d="M299.607 177.585L299.152 240.632L243.893 271.792L189.089 239.85L189.543 176.802L244.802 145.643L299.607 177.585Z" stroke="white" stroke-width="9"/>
<path d="M125.299 81.1146L124.844 144.162L69.5847 175.321L14.7804 143.379L15.2349 80.3321L70.4941 49.1724L125.299 81.1146Z" stroke="white" stroke-width="9"/>
<path d="M187.386 5.79011C187.393 2.75255 184.936 0.284763 181.898 0.278153C178.861 0.271542 176.393 2.72861 176.386 5.76617L187.386 5.79011ZM181.783 53.2484L187.283 53.2604L187.386 5.79011L181.886 5.77814L176.386 5.76617L176.283 53.2364L181.783 53.2484Z" fill="white"/>
<path d="M272.774 53.8943C275.502 52.5591 278.808 53.6824 280.159 56.4033C281.509 59.1242 280.392 62.4124 277.664 63.7476L272.774 53.8943ZM233.691 79.1442L231.246 74.2175L272.774 53.8943L275.219 58.821L277.664 63.7476L236.136 84.0708L233.691 79.1442Z" fill="white"/>
</svg>
