<svg width="493" height="474" viewBox="0 0 493 474" fill="none" xmlns="http://www.w3.org/2000/svg">
<path d="M234.417 57.2773L239.085 145.379L167.431 193.511L91.1195 153.688L86.4521 65.5862L158.104 17.4554L234.417 57.2773Z" fill="#142247" stroke="#364E8F" stroke-width="6"/>
<path d="M386.87 48.2977L391.537 136.4L319.884 184.532L243.572 144.709L238.905 56.6066L310.557 8.47575L386.87 48.2977Z" fill="#142247" stroke="#364E8F" stroke-width="6"/>
<path d="M317.985 190.074L322.653 278.176L250.999 326.308L174.687 286.485L170.02 198.383L241.672 150.252L317.985 190.074Z" fill="#142247" stroke="#364E8F" stroke-width="6"/>
<path d="M165.372 197.522L170.022 285.625L98.3611 333.773L22.0586 293.965L17.4082 205.862L89.0682 157.715L165.372 197.522Z" fill="#142247" stroke="#364E8F" stroke-width="6"/>
<path d="M470.588 180.722L475.255 268.824L403.602 316.956L327.29 277.133L322.622 189.031L394.275 140.9L470.588 180.722Z" fill="#142247" stroke="#364E8F" stroke-width="6"/>
<path d="M403.37 321.001L408.037 409.103L336.384 457.235L260.072 417.412L255.405 329.31L327.057 281.179L403.37 321.001Z" fill="#142247" stroke="#364E8F" stroke-width="6"/>
<path d="M248.951 328.482L253.618 416.584L181.965 464.716L105.653 424.893L100.986 336.791L172.638 288.66L248.951 328.482Z" fill="#142247" stroke="#364E8F" stroke-width="6"/>
</svg>
