<svg width="24" height="25" viewBox="0 0 24 25" fill="none" xmlns="http://www.w3.org/2000/svg">
<path fill-rule="evenodd" clip-rule="evenodd" d="M17.9375 14.6253C18.6966 14.6253 19.3337 15.2518 19.2177 16.0014C18.5367 20.4114 14.7615 23.6857 10.2082 23.6857C5.17056 23.6857 1.0874 19.6026 1.0874 14.5661C1.0874 10.4166 4.23977 6.55137 7.78885 5.67742C8.55148 5.48913 9.33306 6.02558 9.33306 6.81071C9.33306 12.1302 9.51188 13.5062 10.522 14.2547C11.5321 15.0031 12.7199 14.6253 17.9375 14.6253Z" stroke="#A2A2A2" stroke-width="1.5" stroke-linecap="round" stroke-linejoin="round"/>
<path fill-rule="evenodd" clip-rule="evenodd" d="M22.9037 10.1956C22.9641 6.77793 18.766 1.26899 13.6502 1.36372C13.2523 1.37083 12.9338 1.70241 12.916 2.09912C12.787 4.90925 12.961 8.5507 13.0581 10.2015C13.0877 10.7154 13.4916 11.1193 14.0043 11.1489C15.7013 11.246 19.4754 11.3786 22.2452 10.9594C22.6218 10.9025 22.8977 10.5757 22.9037 10.1956Z" stroke="#A2A2A2" stroke-width="1.5" stroke-linecap="round" stroke-linejoin="round"/>
</svg>
