<svg width="22" height="23" viewBox="0 0 22 23" fill="none" xmlns="http://www.w3.org/2000/svg">
<path d="M7.7867 21.3799V17.9297C7.78668 17.0554 8.49763 16.345 9.37824 16.3395H12.6117C13.4962 16.3395 14.2133 17.0515 14.2133 17.9297V21.3699C14.2133 22.1282 14.8295 22.7445 15.5933 22.75H17.7993C18.8296 22.7526 19.8186 22.3481 20.5481 21.6258C21.2775 20.9034 21.6875 19.9226 21.6875 18.8997V9.09908C21.6875 8.27281 21.3186 7.48905 20.6802 6.95894L13.1859 1.00855C11.8758 -0.0322372 10.0048 0.00138423 8.73357 1.08856L1.40039 6.95894C0.731833 7.47342 0.332246 8.25951 0.3125 9.09908V18.8897C0.3125 21.0217 2.0533 22.75 4.2007 22.75H6.35633C6.72407 22.7526 7.07767 22.6095 7.33866 22.3522C7.59964 22.095 7.74642 21.745 7.74641 21.3799H7.7867Z" fill="#5F33E1"/>
</svg>
