<svg width="17" height="15" viewBox="0 0 17 15" fill="none" xmlns="http://www.w3.org/2000/svg">
<path d="M8.79154 0C7.76199 0 6.74252 0.193993 5.79135 0.570904C4.84017 0.947814 3.97591 1.50026 3.24791 2.1967C1.77764 3.60322 0.95166 5.51088 0.95166 7.5C0.95166 9.48912 1.77764 11.3968 3.24791 12.8033C3.97591 13.4997 4.84017 14.0522 5.79135 14.4291C6.74252 14.806 7.76199 15 8.79154 15C10.8708 15 12.8649 14.2098 14.3352 12.8033C15.8054 11.3968 16.6314 9.48912 16.6314 7.5C16.6314 6.51509 16.4286 5.53982 16.0346 4.62987C15.6407 3.71993 15.0632 2.89314 14.3352 2.1967C13.6072 1.50026 12.7429 0.947814 11.7917 0.570904C10.8406 0.193993 9.82109 0 8.79154 0ZM12.0843 10.65L8.00755 8.25V3.75H9.18353V7.65L12.7115 9.675L12.0843 10.65Z" fill="#AB94FF"/>
</svg>
