<svg width="14" height="17" viewBox="0 0 14 17" fill="none" xmlns="http://www.w3.org/2000/svg">
<path d="M9.625 9.34227C9.16125 9.41182 8.72375 9.53545 8.3125 9.69773V3.86364H9.625V9.34227ZM4.8125 15.8409C2.87875 15.8409 1.3125 14.4577 1.3125 12.75L1.3125 3.09091C1.3125 2.02455 2.2925 1.15909 3.5 1.15909C4.7075 1.15909 5.6875 2.02455 5.6875 3.09091L5.6875 11.2045C5.6875 11.6295 5.29375 11.9773 4.8125 11.9773C4.33125 11.9773 3.9375 11.6295 3.9375 11.2045L3.9375 3.86364H2.625L2.625 11.2045C2.625 12.2709 3.605 13.1364 4.8125 13.1364C4.99625 13.1364 5.17125 13.1132 5.3375 13.0745C5.55625 12.0391 6.15125 11.135 7 10.4627L7 3.09091C7 1.38318 5.43375 0 3.5 0C1.56625 0 0 1.38318 0 3.09091L0 12.75C0 15.0991 2.1525 17 4.8125 17C5.36375 17 5.88875 16.915 6.37875 16.7682C6.09875 16.4514 5.8625 16.1036 5.6875 15.7327C5.39875 15.7945 5.11 15.8409 4.8125 15.8409ZM11.375 13.1364V10.8182H9.625V13.1364H7V14.6818H9.625V17H11.375V14.6818H14V13.1364H11.375Z" fill="#CCCCCC"/>
</svg>
