<svg width="22" height="21" viewBox="0 0 22 21" fill="none" xmlns="http://www.w3.org/2000/svg">
<path d="M22 10.46L19.56 13.24L19.9 16.92L16.29 17.74L14.4 20.92L11 19.46L7.6 20.93L5.71 17.75L2.1 16.93L2.44 13.24L0 10.46L2.44 7.67L2.1 3.99L5.71 3.18L7.6 0L11 1.46L14.4 0L16.29 3.18L19.9 4L19.56 7.68L22 10.46ZM19.33 10.46L17.5 8.35L17.74 5.56L15 4.96L13.58 2.53L11 3.64L8.42 2.53L7 4.96L4.26 5.55L4.5 8.34L2.67 10.46L4.5 12.56L4.26 15.36L7 15.96L8.42 18.39L11 17.27L13.58 18.38L15 15.96L17.74 15.35L17.5 12.56L19.33 10.46ZM10 13.46H12V15.46H10V13.46ZM10 5.46H12V11.46H10V5.46Z" fill="black"/>
</svg>
