<svg width="20" height="20" viewBox="0 0 20 20" fill="none" xmlns="http://www.w3.org/2000/svg">
<path fill-rule="evenodd" clip-rule="evenodd" d="M8.40025 15.494H3.14941C2.80441 15.494 2.52441 15.214 2.52441 14.869C2.52441 14.524 2.80441 14.244 3.14941 14.244H8.40025C8.74525 14.244 9.02525 14.524 9.02525 14.869C9.02525 15.214 8.74525 15.494 8.40025 15.494Z" fill="white"/>
<path fill-rule="evenodd" clip-rule="evenodd" d="M15.9922 7.41705H10.7422C10.3972 7.41705 10.1172 7.13705 10.1172 6.79205C10.1172 6.44705 10.3972 6.16705 10.7422 6.16705H15.9922C16.3372 6.16705 16.6172 6.44705 16.6172 6.79205C16.6172 7.13705 16.3372 7.41705 15.9922 7.41705Z" fill="white"/>
<mask id="mask0_701_1913" style="mask-type:luminance" maskUnits="userSpaceOnUse" x="2" y="4" width="6" height="6">
<path fill-rule="evenodd" clip-rule="evenodd" d="M2.5 4.16705H7.68817V9.32672H2.5V4.16705Z" fill="white"/>
</mask>
<g mask="url(#mask0_701_1913)">
<path fill-rule="evenodd" clip-rule="evenodd" d="M5.09417 5.41669C4.35333 5.41669 3.75 6.01335 3.75 6.74752C3.75 7.48085 4.35333 8.07669 5.09417 8.07669C5.83583 8.07669 6.43833 7.48085 6.43833 6.74752C6.43833 6.01335 5.83583 5.41669 5.09417 5.41669ZM5.09417 9.32669C3.66417 9.32669 2.5 8.17002 2.5 6.74752C2.5 5.32502 3.66417 4.16669 5.09417 4.16669C6.525 4.16669 7.68833 5.32502 7.68833 6.74752C7.68833 8.17002 6.525 9.32669 5.09417 9.32669Z" fill="white"/>
</g>
<path fill-rule="evenodd" clip-rule="evenodd" d="M14.4895 13.5067C13.7479 13.5067 13.1445 14.1034 13.1445 14.8367C13.1445 15.5709 13.7479 16.1667 14.4895 16.1667C15.2304 16.1667 15.8329 15.5709 15.8329 14.8367C15.8329 14.1034 15.2304 13.5067 14.4895 13.5067ZM14.4895 17.4167C13.0587 17.4167 11.8945 16.2592 11.8945 14.8367C11.8945 13.4142 13.0587 12.2567 14.4895 12.2567C15.9195 12.2567 17.0829 13.4142 17.0829 14.8367C17.0829 16.2592 15.9195 17.4167 14.4895 17.4167Z" fill="white"/>
</svg>
